<svg xmlns="http://www.w3.org/2000/svg" width="168" height="224">
    <style>
        line, path, circle, rect, polygon{stroke:#828282;stroke-width:2;stroke-opacity:1;fill-opacity:1;stroke-linecap:round;stroke-linejoin:miter;}text{font-family:Iosevka Fixed, monospace;font-size:14px;}rect.backdrop{stroke:none;fill:transparent;}.broken{stroke-dasharray:8;}.filled{fill:#828282;}.bg_filled{fill:transparent;}.nofill{fill:transparent;}.end_marked_arrow{marker-end:url(#arrow);}.start_marked_arrow{marker-start:url(#arrow);}.end_marked_diamond{marker-end:url(#diamond);}.start_marked_diamond{marker-start:url(#diamond);}.end_marked_circle{marker-end:url(#circle);}.start_marked_circle{marker-start:url(#circle);}.end_marked_open_circle{marker-end:url(#open_circle);}.start_marked_open_circle{marker-start:url(#open_circle);}.end_marked_big_open_circle{marker-end:url(#big_open_circle);}.start_marked_big_open_circle{marker-start:url(#big_open_circle);}
        <!--separator-->
        
    </style>
    <defs>
        <marker id="arrow" viewBox="-2 -2 8 8" refX="4" refY="2" markerWidth="7" markerHeight="7" orient="auto-start-reverse">
            <polygon points="0,0 0,4 4,2 0,0"></polygon>
        </marker>
        <marker id="diamond" viewBox="-2 -2 8 8" refX="4" refY="2" markerWidth="7" markerHeight="7" orient="auto-start-reverse">
            <polygon points="0,2 2,0 4,2 2,4 0,2"></polygon>
        </marker>
        <marker id="circle" viewBox="0 0 8 8" refX="4" refY="4" markerWidth="7" markerHeight="7" orient="auto-start-reverse">
            <circle cx="4" cy="4" r="2" class="filled"></circle>
        </marker>
        <marker id="open_circle" viewBox="0 0 8 8" refX="4" refY="4" markerWidth="7" markerHeight="7" orient="auto-start-reverse">
            <circle cx="4" cy="4" r="2" class="bg_filled"></circle>
        </marker>
        <marker id="big_open_circle" viewBox="0 0 8 8" refX="4" refY="4" markerWidth="7" markerHeight="7" orient="auto-start-reverse">
            <circle cx="4" cy="4" r="3" class="bg_filled"></circle>
        </marker>
    </defs>
    <rect class="backdrop" x="0" y="0" width="168" height="224"></rect>
    <rect x="80" y="16" width="8" height="16" class="solid filled" rx="0"></rect>
    <rect x="88" y="16" width="8" height="16" class="solid filled" rx="0"></rect>
    <rect x="96" y="16" width="8" height="16" class="solid filled" rx="0"></rect>
    <rect x="104" y="16" width="8" height="16" class="solid filled" rx="0"></rect>
    <rect x="72" y="32" width="8" height="16" class="solid filled" rx="0"></rect>
    <rect x="80" y="32" width="8" height="16" class="solid filled" rx="0"></rect>
    <rect x="104" y="32" width="8" height="16" class="solid filled" rx="0"></rect>
    <rect x="72" y="48" width="8" height="16" class="solid filled" rx="0"></rect>
    <rect x="104" y="48" width="8" height="16" class="solid filled" rx="0"></rect>
    <rect x="24" y="64" width="8" height="16" class="solid filled" rx="0"></rect>
    <rect x="32" y="64" width="8" height="16" class="solid filled" rx="0"></rect>
    <rect x="40" y="64" width="8" height="16" class="solid filled" rx="0"></rect>
    <rect x="64" y="64" width="8" height="16" class="solid filled" rx="0"></rect>
    <rect x="104" y="64" width="8" height="16" class="solid filled" rx="0"></rect>
    <rect x="24" y="80" width="8" height="16" class="solid filled" rx="0"></rect>
    <rect x="40" y="80" width="8" height="16" class="solid filled" rx="0"></rect>
    <rect x="48" y="80" width="8" height="16" class="solid filled" rx="0"></rect>
    <rect x="56" y="80" width="8" height="16" class="solid filled" rx="0"></rect>
    <rect x="64" y="80" width="8" height="16" class="solid filled" rx="0"></rect>
    <rect x="104" y="80" width="8" height="16" class="solid filled" rx="0"></rect>
    <rect x="112" y="80" width="8" height="16" class="solid filled" rx="0"></rect>
    <rect x="120" y="80" width="8" height="16" class="solid filled" rx="0"></rect>
    <rect x="128" y="80" width="8" height="16" class="solid filled" rx="0"></rect>
    <rect x="136" y="80" width="8" height="16" class="solid filled" rx="0"></rect>
    <rect x="144" y="80" width="8" height="16" class="solid filled" rx="0"></rect>
    <rect x="24" y="96" width="8" height="16" class="solid filled" rx="0"></rect>
    <rect x="48" y="96" width="8" height="16" class="solid filled" rx="0"></rect>
    <rect x="56" y="96" width="8" height="16" class="solid filled" rx="0"></rect>
    <rect x="104" y="96" width="8" height="16" class="solid filled" rx="0"></rect>
    <rect x="112" y="96" width="8" height="16" class="solid filled" rx="0"></rect>
    <rect x="144" y="96" width="8" height="16" class="solid filled" rx="0"></rect>
    <rect x="152" y="96" width="8" height="16" class="solid filled" rx="0"></rect>
    <rect x="24" y="112" width="8" height="16" class="solid filled" rx="0"></rect>
    <rect x="32" y="112" width="8" height="16" class="solid filled" rx="0"></rect>
    <rect x="136" y="112" width="8" height="16" class="solid filled" rx="0"></rect>
    <rect x="144" y="112" width="8" height="16" class="solid filled" rx="0"></rect>
    <rect x="152" y="112" width="8" height="16" class="solid filled" rx="0"></rect>
    <rect x="32" y="128" width="8" height="16" class="solid filled" rx="0"></rect>
    <rect x="120" y="128" width="8" height="16" class="solid filled" rx="0"></rect>
    <rect x="128" y="128" width="8" height="16" class="solid filled" rx="0"></rect>
    <rect x="32" y="144" width="8" height="16" class="solid filled" rx="0"></rect>
    <rect x="40" y="144" width="8" height="16" class="solid filled" rx="0"></rect>
    <rect x="120" y="144" width="8" height="16" class="solid filled" rx="0"></rect>
    <rect x="128" y="144" width="8" height="16" class="solid filled" rx="0"></rect>
    <rect x="136" y="144" width="8" height="16" class="solid filled" rx="0"></rect>
    <rect x="32" y="160" width="8" height="16" class="solid filled" rx="0"></rect>
    <rect x="136" y="160" width="8" height="16" class="solid filled" rx="0"></rect>
    <rect x="32" y="176" width="8" height="16" class="solid filled" rx="0"></rect>
    <rect x="40" y="176" width="8" height="16" class="solid filled" rx="0"></rect>
    <rect x="112" y="176" width="8" height="16" class="solid filled" rx="0"></rect>
    <rect x="120" y="176" width="8" height="16" class="solid filled" rx="0"></rect>
    <rect x="128" y="176" width="8" height="16" class="solid filled" rx="0"></rect>
    <rect x="136" y="176" width="8" height="16" class="solid filled" rx="0"></rect>
    <rect x="40" y="192" width="8" height="16" class="solid filled" rx="0"></rect>
    <rect x="48" y="192" width="8" height="16" class="solid filled" rx="0"></rect>
    <rect x="56" y="192" width="8" height="16" class="solid filled" rx="0"></rect>
    <rect x="64" y="192" width="8" height="16" class="solid filled" rx="0"></rect>
    <rect x="72" y="192" width="8" height="16" class="solid filled" rx="0"></rect>
    <rect x="80" y="192" width="8" height="16" class="solid filled" rx="0"></rect>
    <rect x="88" y="192" width="8" height="16" class="solid filled" rx="0"></rect>
    <rect x="96" y="192" width="8" height="16" class="solid filled" rx="0"></rect>
    <rect x="104" y="192" width="8" height="16" class="solid filled" rx="0"></rect>
    <rect x="112" y="192" width="8" height="16" class="solid filled" rx="0"></rect>
    <rect x="56" y="128" width="8" height="16" class="solid filled" rx="0"></rect>
    <rect x="88" y="128" width="8" height="16" class="solid filled" rx="0"></rect>
</svg>
